<?xml version="1.0" standalone="no"?>
<!DOCTYPE svg PUBLIC "-//W3C//DTD SVG 20010904//EN"
 "http://www.w3.org/TR/2001/REC-SVG-20010904/DTD/svg10.dtd">
<svg version="1.0" xmlns="http://www.w3.org/2000/svg"
 width="1057.000000pt" height="1181.000000pt" viewBox="0 0 1057.000000 1181.000000"
 preserveAspectRatio="xMidYMid meet">

<g transform="translate(0.000000,1181.000000) scale(0.100000,-0.100000)"
fill="#000000" stroke="none">
<path d="M3557 11269 c-88 -30 -157 -77 -240 -163 -40 -43 -100 -159 -111
-218 -5 -27 -15 -41 -42 -57 -19 -11 -37 -27 -40 -36 -4 -8 -12 -15 -20 -15
-10 0 -6 15 15 53 41 73 62 147 64 218 3 81 -11 85 -73 21 -96 -99 -152 -222
-155 -335 l-2 -79 -56 -56 c-31 -31 -59 -53 -63 -50 -3 4 5 42 20 85 26 80 50
228 40 244 -12 19 -38 7 -77 -37 -101 -112 -177 -293 -177 -422 l0 -67 -81
-108 c-45 -60 -83 -106 -86 -103 -3 2 3 38 12 78 9 40 20 135 22 210 5 126 4
138 -12 144 -13 6 -26 -3 -49 -31 -64 -79 -98 -158 -156 -360 -18 -62 -21
-135 -10 -213 12 -79 11 -82 -12 -124 -67 -116 -121 -198 -130 -198 -6 0 -7 7
-4 16 24 62 16 396 -9 431 -13 17 -14 17 -29 -2 -42 -54 -110 -215 -137 -323
-40 -163 -47 -262 -24 -364 21 -89 18 -106 -42 -238 -14 -30 -32 -72 -40 -92
-8 -21 -19 -38 -23 -38 -4 0 -10 57 -13 128 -5 131 -36 296 -64 340 -20 33
-36 16 -72 -76 -108 -281 -118 -590 -25 -773 l25 -51 -45 -191 c-25 -106 -48
-209 -52 -230 -10 -57 -21 -53 -34 10 -23 114 -80 269 -131 356 -58 100 -84
113 -94 50 -4 -21 -11 -60 -16 -88 -18 -89 -22 -275 -10 -384 25 -215 74 -350
159 -440 l42 -46 -6 -135 c-4 -74 -8 -137 -10 -139 -2 -2 -7 7 -13 20 -83 213
-127 290 -225 395 -90 97 -96 92 -96 -84 0 -175 24 -317 79 -471 70 -195 136
-281 241 -314 10 -3 20 -35 32 -103 28 -156 36 -219 31 -224 -6 -6 -3 -9 -76
115 -64 110 -166 215 -264 274 -81 48 -103 48 -103 0 0 -87 61 -311 111 -411
108 -215 218 -328 320 -328 37 0 49 4 49 15 0 8 5 15 10 15 6 0 10 -22 10 -48
0 -26 4 -52 9 -57 5 -6 21 -53 35 -105 15 -52 33 -112 41 -133 27 -68 12 -79
-28 -19 -55 81 -188 202 -267 242 -47 24 -206 61 -228 53 -18 -7 -15 -41 12
-120 59 -173 150 -317 277 -439 99 -94 189 -128 284 -107 l40 9 -2 47 c-2 26
1 47 6 47 14 0 44 -78 38 -101 -6 -24 7 -55 33 -79 9 -8 38 -58 64 -110 27
-52 52 -99 57 -105 5 -5 9 -16 9 -24 0 -9 -21 8 -46 37 -53 61 -136 120 -232
165 -65 31 -71 32 -197 31 -140 0 -185 -11 -185 -43 0 -23 59 -128 109 -191
74 -95 193 -192 299 -242 58 -27 78 -32 152 -32 78 -1 89 2 132 29 52 33 54
39 34 81 -18 37 -29 74 -22 74 3 0 19 -21 36 -46 21 -29 30 -53 27 -66 -4 -16
7 -34 46 -72 29 -28 89 -103 134 -166 46 -63 110 -146 143 -184 33 -38 60 -74
60 -79 0 -5 -11 -6 -24 -3 -14 3 -27 2 -31 -3 -8 -14 28 -31 62 -31 23 0 47
-17 109 -78 74 -74 239 -217 293 -254 31 -22 19 -38 -28 -38 -33 0 -43 7 -93
63 -41 46 -75 73 -124 97 -65 32 -77 35 -186 38 -145 5 -220 -15 -329 -86
-120 -79 -121 -83 -25 -160 127 -101 256 -147 416 -147 89 1 112 4 150 23 53
27 85 53 125 105 27 37 31 39 68 33 30 -5 44 -2 59 10 17 17 20 16 51 -6 17
-14 66 -48 107 -77 41 -29 81 -58 89 -64 7 -7 34 -26 60 -43 215 -146 319
-264 421 -479 52 -109 130 -332 130 -371 0 -13 -7 -41 -16 -62 -71 -168 -129
-499 -122 -694 3 -91 4 -95 29 -107 15 -7 48 -16 73 -19 l46 -7 0 70 c0 60 4
76 30 116 17 27 50 60 77 77 44 28 53 30 144 30 54 0 109 -4 123 -10 25 -9 25
-11 28 -127 3 -118 3 -118 31 -131 15 -7 46 -14 70 -15 l42 -2 5 75 c7 97 28
135 107 188 27 19 45 22 145 22 75 0 118 -4 126 -12 8 -8 12 -50 12 -124 0
-87 3 -114 15 -124 23 -19 18 -42 -24 -125 -164 -315 -462 -548 -789 -616
-109 -22 -345 -26 -464 -8 -139 22 -298 55 -443 94 -132 35 -262 43 -336 22
-42 -13 -64 -14 -90 -7 -95 27 -216 7 -391 -66 -261 -109 -315 -126 -405 -128
-106 -1 -113 6 -147 144 -16 63 -39 126 -59 159 -63 106 -181 170 -292 158
-96 -10 -159 -57 -209 -156 -40 -78 -52 -84 -169 -86 -96 -1 -147 -13 -147
-35 0 -17 18 -20 47 -9 15 6 71 12 123 13 52 1 104 7 116 13 11 7 33 36 48 65
67 124 114 158 218 158 67 0 123 -21 170 -62 36 -32 88 -107 88 -128 0 -16 -4
-16 -53 1 -61 21 -101 23 -148 8 -73 -25 -98 -76 -32 -64 97 17 141 17 174 -1
47 -24 78 -63 85 -106 16 -99 73 -134 204 -125 94 6 161 27 340 105 161 69
239 92 321 92 78 0 86 -10 43 -51 -14 -13 -64 -76 -110 -139 -98 -137 -139
-180 -218 -231 -90 -59 -177 -89 -309 -106 -50 -6 -137 8 -222 35 -27 9 -84
16 -125 16 -137 1 -212 -56 -352 -269 -26 -38 -72 -97 -103 -130 -74 -79 -87
-105 -83 -166 3 -57 22 -71 26 -19 5 64 12 78 76 148 35 39 92 112 127 164 34
51 73 107 87 123 45 56 115 104 169 116 47 11 62 9 160 -17 149 -40 293 -40
404 -2 159 56 275 150 387 314 85 127 152 194 190 194 30 0 155 -41 246 -80
47 -20 61 -40 28 -40 -10 0 -54 -9 -98 -21 -190 -49 -365 -178 -481 -354 -60
-90 -84 -153 -90 -240 -13 -170 55 -243 264 -286 175 -35 275 -48 438 -54 293
-11 359 -33 432 -144 57 -86 79 -108 130 -127 97 -37 182 -16 893 223 136 46
238 55 297 25 91 -47 142 -138 143 -255 0 -58 3 -78 12 -75 29 10 35 105 12
175 -49 147 -195 237 -331 204 -49 -12 -472 -146 -508 -161 -18 -8 -160 -53
-292 -94 -28 -9 -86 -16 -128 -16 -96 0 -135 22 -194 113 -82 127 -189 167
-439 167 -95 0 -157 6 -357 37 -274 41 -341 90 -338 247 4 198 181 426 418
536 145 68 302 93 415 67 261 -61 604 -42 865 48 73 25 286 133 390 198 223
137 342 271 431 482 37 89 45 100 69 103 26 3 27 6 21 41 -9 61 19 139 69 188
38 38 47 43 89 43 33 0 48 -5 53 -16 5 -13 10 -12 29 9 30 33 82 41 234 35 78
-3 124 -9 134 -17 11 -10 16 -31 16 -75 1 -80 15 -175 39 -260 10 -38 17 -74
15 -81 -3 -7 1 -15 9 -18 8 -3 32 -41 53 -83 119 -242 362 -432 635 -498 90
-22 130 -26 253 -26 80 0 167 5 193 11 106 26 211 62 263 91 30 17 71 40 90
51 139 78 317 295 380 462 57 152 70 222 70 376 0 159 -21 270 -76 402 -32 76
-112 204 -173 275 -128 150 -356 275 -575 316 -91 16 -238 19 -311 5 -28 -6
-68 -12 -90 -14 -68 -7 -129 -23 -190 -49 -31 -14 -59 -26 -61 -26 -2 0 -4 25
-4 56 l0 55 78 36 c97 44 149 60 287 85 105 19 115 19 235 4 268 -33 479 -132
672 -314 185 -176 294 -378 344 -635 16 -87 16 -109 1 -392 l-2 -40 290 0 290
0 3 60 c2 32 8 65 14 72 8 10 61 13 217 13 113 0 211 4 216 8 12 8 35 79 35
106 0 36 82 224 126 289 79 119 213 237 334 294 187 89 425 107 623 47 35 -11
61 -14 67 -8 9 9 -18 197 -39 262 -36 116 -128 169 -401 228 -63 13 -133 29
-155 34 -22 5 -89 16 -150 25 -60 8 -136 20 -169 26 -68 12 -185 24 -381 39
-90 7 -148 16 -162 26 -23 14 -23 18 -23 226 l0 211 -31 49 -31 48 3 183 4
182 34 48 c19 26 40 47 47 47 20 0 34 34 34 80 0 51 -15 58 -66 29 -65 -37
-113 -89 -134 -146 -17 -47 -20 -78 -20 -244 l0 -189 -27 -42 c-28 -41 -28
-44 -33 -241 -3 -139 -9 -202 -17 -204 -6 -2 -14 13 -18 39 -4 24 -11 59 -15
78 -5 19 -14 69 -20 110 -7 41 -19 109 -27 150 -31 161 -43 320 -31 402 13 85
8 97 -43 124 -74 38 -241 79 -379 93 -152 16 -519 40 -710 47 -289 10 -472
-21 -506 -88 -25 -48 -8 -72 60 -87 39 -9 62 -21 79 -41 22 -26 23 -33 15 -86
-5 -33 -13 -97 -18 -144 -5 -47 -16 -134 -25 -195 -9 -60 -20 -148 -24 -195
-10 -95 -29 -201 -41 -219 -4 -7 -55 -19 -116 -26 -195 -25 -212 -31 -240 -91
-14 -30 -41 -51 -51 -40 -12 11 -21 812 -9 823 3 3 6 -2 6 -13 1 -15 2 -16 9
-4 9 15 -8 153 -29 231 -26 102 -43 156 -56 181 -8 14 -14 40 -14 56 0 17 -5
32 -11 34 -6 2 -13 28 -15 58 -3 41 -1 48 5 30 8 -23 9 -24 10 -3 1 12 -3 25
-9 28 -5 3 -10 21 -10 39 0 38 -15 56 -47 56 -18 0 -29 12 -52 63 -16 34 -33
75 -37 91 -6 25 -4 28 10 23 12 -5 16 -1 16 18 0 13 -4 27 -10 30 -5 3 -10 19
-10 35 0 73 -41 103 -55 40 -5 -24 -11 -28 -35 -28 -32 1 -66 39 -56 64 3 8 2
14 -3 14 -5 0 -8 7 -7 16 0 9 -5 19 -13 22 -10 3 -12 0 -8 -11 12 -31 -7 -26
-42 12 -82 88 -113 139 -76 125 10 -4 15 0 15 14 0 17 -7 21 -37 24 -37 3 -38
4 -36 38 1 19 0 29 -3 23 -9 -20 -30 -15 -48 12 -17 27 -21 61 -7 69 5 3 12
62 16 130 l7 125 -33 58 c-40 73 -67 103 -91 103 -10 0 -38 -18 -60 -40 -40
-38 -42 -43 -46 -108 -5 -102 -6 -103 -63 -44 -39 41 -57 52 -82 53 -18 0 -53
2 -79 4 -64 5 -73 -12 -63 -114 5 -42 8 -94 8 -115 -1 -23 2 -34 7 -26 11 17
19 12 68 -42 38 -41 41 -48 26 -56 -16 -9 -15 -11 5 -22 22 -11 36 -7 36 11 0
10 6 11 58 2 20 -3 40 -10 43 -14 8 -14 34 -10 34 5 0 13 20 26 41 26 5 0 19
-10 31 -22 11 -11 34 -21 49 -22 16 -1 29 -5 29 -10 0 -5 8 -18 17 -28 15 -17
15 -20 3 -28 -14 -9 -13 -11 11 -14 14 -1 39 -36 39 -53 0 -7 -7 -13 -15 -13
-12 0 -10 -6 7 -23 15 -16 25 -20 30 -13 5 7 8 4 8 -8 0 -12 5 -16 15 -12 9 3
15 0 15 -10 0 -8 4 -13 9 -10 8 5 39 -23 34 -31 -8 -10 -1 -23 12 -23 8 0 15
-5 15 -11 0 -5 -4 -8 -9 -4 -22 13 -22 -19 -1 -35 13 -10 24 -28 25 -40 1 -13
9 -24 17 -26 25 -3 76 -45 81 -66 4 -12 -3 -24 -19 -34 -13 -9 -24 -25 -24
-35 0 -11 -6 -22 -14 -25 -25 -10 -13 -47 19 -56 44 -11 114 18 115 50 0 6 7
12 15 12 17 0 21 -35 5 -45 -22 -14 -9 -26 20 -20 23 5 30 3 30 -9 0 -9 9 -30
20 -48 20 -33 28 -84 11 -74 -5 4 -12 0 -15 -6 -3 -7 -3 -3 -1 8 7 26 -21 100
-40 107 -8 4 -11 -1 -8 -13 3 -10 0 -27 -6 -39 -11 -19 -18 -20 -88 -16 -44 2
-83 -1 -89 -6 -7 -6 -23 -9 -36 -8 -52 5 -68 -1 -74 -26 -3 -14 -1 -32 6 -40
8 -10 9 -19 1 -32 -8 -14 -10 -15 -11 -2 0 20 -23 69 -32 69 -12 0 -21 -47
-15 -73 4 -12 3 -28 -2 -35 -5 -9 -8 -2 -9 18 0 17 -5 37 -11 44 -12 14 -9 39
6 57 13 17 33 85 33 115 0 17 -8 23 -37 29 -21 4 -43 15 -51 26 -7 10 -20 19
-28 19 -12 0 -13 4 -3 21 14 26 -4 41 -38 33 -16 -4 -38 5 -75 32 -29 22 -58
38 -65 36 -7 -2 -13 2 -13 8 0 5 5 10 10 10 6 0 10 5 10 11 0 8 -13 10 -38 6
-28 -5 -45 -1 -67 13 -35 23 -20 27 21 5 15 -8 30 -13 31 -11 9 9 -12 33 -43
47 -30 15 -35 15 -43 2 -7 -14 -11 -13 -33 1 -24 16 -48 55 -48 79 0 7 11 -1
23 -17 19 -23 27 -27 41 -19 16 9 10 14 -38 42 -74 41 -94 33 -98 -41 -3 -49
-4 -51 -20 -34 -22 21 -23 36 -3 36 20 0 19 34 0 50 -13 11 -20 9 -41 -11 -16
-15 -28 -20 -32 -13 -4 6 -18 14 -32 17 -15 4 -30 19 -39 38 -8 17 -22 34 -32
36 -14 4 -19 15 -19 39 0 18 -4 36 -10 39 -5 3 -10 15 -10 26 0 14 -7 19 -26
19 -23 0 -26 -3 -22 -25 7 -32 -8 -33 -16 -1 -3 14 -15 27 -26 31 -10 3 -22
15 -25 26 -8 23 -18 24 -53 3 l-27 -16 28 24 c29 25 39 75 13 65 -10 -4 -16 2
-18 21 -2 19 -10 28 -25 30 -30 4 -30 -20 -1 -48 26 -24 12 -27 -20 -4 -12 8
-22 24 -22 34 0 10 -10 27 -22 37 -13 10 -29 29 -36 42 -12 21 -12 22 9 16 18
-6 21 -4 16 10 -4 9 -7 23 -7 31 0 8 -9 14 -20 14 -11 0 -29 5 -39 12 -15 9
-25 9 -46 0 -40 -18 -52 -15 -64 18 -5 16 -15 30 -20 30 -6 0 -11 7 -11 15 0
8 5 15 10 15 15 0 12 26 -3 39 -8 6 -28 14 -45 17 -27 6 -33 3 -41 -19 -9 -24
-12 -25 -35 -13 -24 12 -59 49 -67 71 -2 5 -8 9 -13 7 -5 -2 -6 5 -2 14 5 13
1 16 -23 12 -17 -2 -28 -1 -25 4 3 4 14 8 25 8 32 0 19 34 -14 38 -15 2 -27 8
-27 13 0 17 -15 9 -25 -13 -11 -25 -41 -34 -64 -19 -12 8 -12 12 -2 24 8 10 8
17 2 21 -6 4 -15 -3 -21 -14 -13 -25 -47 -26 -55 -2 -3 9 -21 28 -40 42 -19
14 -35 30 -35 37 0 7 -9 17 -20 23 -11 6 -20 17 -20 24 0 7 -16 29 -35 49 -40
41 -47 88 -18 119 16 18 16 21 -1 49 -10 17 -15 33 -11 37 4 4 10 1 12 -5 7
-19 22 -15 19 5 -2 9 -8 17 -14 17 -13 0 -28 15 -16 16 5 1 22 3 38 5 16 2 35
5 43 8 7 3 13 1 13 -5 0 -5 10 -7 23 -4 15 4 28 0 37 -10 13 -15 11 -17 -10
-15 -54 5 -59 2 -47 -25 7 -14 20 -28 31 -31 13 -4 15 -9 7 -17 -20 -20 -12
-27 28 -27 45 0 62 15 27 24 -22 5 -27 24 -18 69 1 4 15 1 31 -8 23 -11 29
-21 28 -42 -2 -27 0 -28 48 -29 28 -1 53 -3 58 -4 4 -1 10 -3 15 -4 24 -4 140
-71 138 -80 -2 -6 -1 -8 1 -3 8 14 28 7 91 -33 34 -22 67 -40 71 -40 5 0 11
-9 14 -19 3 -13 11 -18 23 -15 12 3 32 -7 54 -26 32 -28 33 -30 10 -24 l-25 7
25 -21 c16 -13 27 -16 32 -9 9 14 45 -10 120 -83 34 -33 70 -60 80 -60 27 0
23 44 -7 74 -31 31 -31 38 -3 34 31 -4 47 44 47 139 1 60 -4 83 -26 125 -14
29 -35 70 -45 91 -11 21 -16 46 -13 57 5 15 3 18 -8 14 -10 -3 -31 12 -59 42
-23 27 -55 61 -70 77 -15 16 -30 38 -33 48 -4 11 -10 19 -15 19 -9 0 -134 95
-170 130 -14 14 -41 36 -60 50 -18 14 -45 35 -59 47 l-26 21 37 7 c23 4 35 12
32 19 -3 7 7 25 21 40 30 32 30 36 8 36 -29 0 -54 30 -42 51 10 20 3 24 -25
13 -9 -4 -16 -18 -16 -33 0 -25 -3 -27 -30 -23 -36 5 -41 -14 -10 -41 22 -19
25 -33 10 -42 -6 -3 -10 4 -10 16 0 12 -3 19 -7 16 -12 -12 -123 80 -123 102
0 5 -8 16 -18 23 -10 7 -36 38 -58 68 -21 30 -44 60 -50 67 -8 8 -10 50 -7
129 3 112 5 118 33 155 33 40 123 79 187 79 47 0 147 -43 191 -82 l37 -32 3
25 c2 14 -6 77 -17 140 -11 63 -29 166 -40 229 -20 110 -44 201 -92 340 -29
86 -114 250 -140 273 -28 23 -62 22 -85 -4 -26 -29 -31 -216 -10 -427 17 -169
21 -458 7 -480 -14 -23 -30 9 -46 94 -11 54 -19 182 -25 409 -10 359 -15 427
-37 525 -23 106 -53 133 -102 93 -30 -26 -46 -104 -96 -493 -87 -675 -104
-939 -75 -1224 12 -124 7 -152 -25 -126 -8 7 -15 18 -15 25 0 7 -7 19 -16 26
-21 17 -26 33 -79 223 -72 259 -172 548 -252 726 -49 108 -83 201 -83 226 0
15 14 42 32 62 50 58 101 177 102 242 1 50 -1 55 -22 58 -17 3 -34 -8 -62 -37
-30 -32 -41 -54 -54 -110 -9 -38 -16 -87 -16 -108 0 -36 -14 -73 -23 -63 -93
110 -157 176 -193 201 -54 37 -114 49 -132 26 -11 -13 -10 -16 7 -22 39 -12
73 -49 108 -119 100 -197 80 -376 -40 -362 -32 3 -37 1 -33 -12 3 -10 21 -75
41 -147 20 -71 45 -155 55 -185 11 -30 22 -71 26 -90 4 -19 19 -73 35 -120 16
-47 29 -97 29 -111 0 -15 7 -43 15 -64 9 -20 15 -58 14 -83 -1 -33 15 -97 54
-217 30 -93 70 -219 90 -280 45 -142 86 -216 193 -345 151 -184 233 -263 479
-465 54 -44 129 -106 166 -137 37 -32 72 -58 78 -58 5 0 11 -3 13 -8 2 -4 39
-35 83 -69 44 -34 94 -75 110 -91 17 -16 50 -42 75 -57 25 -16 63 -43 85 -62
22 -18 87 -69 144 -114 137 -107 311 -277 429 -419 53 -63 101 -120 107 -127
5 -7 15 -18 20 -25 6 -7 26 -33 45 -58 189 -241 259 -418 280 -711 18 -256
-15 -534 -101 -853 -33 -122 -115 -373 -128 -395 -20 -32 -31 3 -31 100 0 89
3 105 30 163 17 35 37 69 45 76 8 7 15 21 15 31 0 17 -8 19 -80 19 l-80 0 -15
-38 c-25 -58 -83 -243 -90 -284 -3 -21 -8 -38 -11 -38 -3 0 -26 21 -50 46 -53
54 -126 90 -220 107 -86 15 -89 27 -34 121 22 37 40 72 40 77 0 5 -33 9 -73 9
-88 0 -92 -3 -135 -110 -29 -73 -30 -75 -62 -72 -45 4 -109 41 -126 74 -16 31
-18 67 -5 100 27 72 34 114 37 213 l3 110 74 13 c41 6 97 22 123 34 60 26 153
118 181 178 19 40 19 48 7 72 -8 15 -14 33 -14 41 0 7 -11 24 -25 37 -21 20
-31 22 -77 17 -109 -11 -260 -104 -302 -185 -22 -43 -36 -41 -69 8 -12 17 -17
45 -17 95 0 229 -145 433 -360 505 -108 36 -122 18 -108 -145 22 -263 105
-437 236 -495 58 -26 82 -25 142 5 72 36 85 33 118 -24 56 -97 83 -251 63
-351 -40 -198 -39 -192 -25 -226 17 -42 57 -72 112 -87 25 -6 47 -18 50 -25 4
-13 -7 -80 -41 -232 l-12 -55 -129 -3 c-153 -3 -155 -2 -187 101 -34 110 -24
196 36 311 25 48 45 89 43 90 -32 14 -45 37 -88 153 -129 356 -298 574 -600
781 -211 145 -330 236 -330 254 0 6 24 37 54 69 57 61 93 139 117 254 18 84
16 359 -4 460 -28 145 -105 347 -132 349 -26 2 -121 -219 -166 -389 -19 -70
-19 -410 0 -485 16 -64 50 -135 92 -193 18 -25 26 -44 20 -50 -18 -18 -381
300 -381 334 0 12 -7 19 -19 19 -22 0 -115 101 -218 238 -74 98 -98 139 -108
185 -3 17 -12 27 -23 27 -39 1 -262 429 -262 505 0 23 -5 34 -18 37 -23 6
-103 205 -162 402 -32 102 -39 140 -34 174 5 34 3 42 -9 42 -9 0 -18 8 -21 18
-27 92 -86 497 -86 588 0 22 7 49 15 60 8 10 15 27 15 37 0 15 -3 15 -20 5
-10 -7 -22 -9 -26 -6 -10 11 -13 405 -4 555 8 132 8 133 47 195 l39 63 52 -3
c66 -5 114 12 177 59 122 93 272 322 333 509 29 87 82 312 82 346 0 23 -3 26
-27 21 -106 -19 -269 -121 -358 -223 -177 -203 -262 -393 -268 -597 -2 -77 -6
-100 -21 -116 -42 -47 -44 -25 -16 174 11 77 28 183 39 235 11 52 27 129 36
170 30 150 56 224 90 264 l33 40 69 -17 c105 -25 170 -2 292 103 131 113 253
306 318 507 24 72 25 85 13 93 -52 33 -266 -30 -370 -108 -19 -14 -71 -62
-115 -107 -103 -104 -158 -205 -187 -343 -19 -97 -34 -130 -50 -114 -4 4 6 48
23 98 17 49 40 120 51 158 10 38 33 96 49 130 17 34 40 86 52 116 29 79 86
179 107 190 14 7 19 20 18 48 -1 22 6 49 17 66 23 35 31 19 15 -30 -12 -34
-11 -38 16 -60 16 -13 50 -30 76 -38 42 -13 55 -13 104 0 69 18 83 25 164 85
104 77 170 152 251 289 103 173 95 193 -73 192 -105 -1 -185 -29 -295 -103
-40 -27 -73 -46 -73 -43 0 5 40 68 126 200 19 28 49 65 69 82 19 18 35 41 35
52 0 10 5 22 11 26 8 5 10 -1 5 -19 -7 -30 28 -78 77 -104 76 -39 228 2 338
90 73 59 179 191 179 222 0 51 -176 98 -279 75 -31 -7 -70 -19 -88 -27 -18 -8
-37 -13 -42 -11 -20 6 173 208 199 208 10 0 28 -16 40 -35 30 -49 72 -68 145
-67 87 1 164 33 246 103 107 93 111 113 29 167 -70 46 -103 55 -171 49 -32 -3
-59 -1 -59 3 0 5 16 18 35 30 19 11 43 33 53 47 18 25 19 25 50 9 40 -21 81
-20 134 1 99 39 220 149 300 270 85 128 105 184 72 197 -33 13 -141 5 -197
-15z m-895 -3529 c9 -30 29 -95 43 -145 30 -100 86 -257 95 -265 11 -9 127
-373 159 -500 54 -208 52 -203 89 -214 35 -10 42 -30 14 -45 -19 -10 -70 7
-88 30 -16 20 -44 108 -44 137 0 24 -63 246 -81 287 -5 11 -15 43 -23 70 -15
53 -63 184 -101 275 -13 30 -34 89 -48 130 -14 41 -30 89 -35 105 -19 54 -41
167 -35 181 12 31 38 8 55 -46z m755 -1026 c-3 -3 -12 -4 -19 -1 -8 3 -5 6 6
6 11 1 17 -2 13 -5z m-17 -24 c0 -5 -5 -10 -11 -10 -5 0 -7 5 -4 10 3 6 8 10
11 10 2 0 4 -4 4 -10z m130 -60 c0 -5 -2 -10 -4 -10 -3 0 -8 5 -11 10 -3 6 -1
10 4 10 6 0 11 -4 11 -10z m80 -631 c0 -5 -9 -9 -20 -9 -11 0 -20 6 -20 14 0
9 7 12 20 9 11 -3 20 -9 20 -14z m95 -49 c3 -5 1 -10 -4 -10 -6 0 -11 5 -11
10 0 6 2 10 4 10 3 0 8 -4 11 -10z m342 -32 c-3 -8 -6 -5 -6 6 -1 11 2 17 5
13 3 -3 4 -12 1 -19z m-67 -48 c0 -5 -2 -10 -4 -10 -3 0 -8 5 -11 10 -3 6 -1
10 4 10 6 0 11 -4 11 -10z m280 -111 c0 -24 -23 -21 -28 4 -2 10 3 17 12 17
10 0 16 -9 16 -21z m397 -401 c-3 -8 -6 -5 -6 6 -1 11 2 17 5 13 3 -3 4 -12 1
-19z m983 -173 c10 -12 10 -15 -4 -15 -9 0 -16 7 -16 15 0 8 2 15 4 15 2 0 9
-7 16 -15z m-515 -64 c3 -6 -4 -15 -15 -21 -11 -6 -20 -9 -20 -6 0 2 -3 11 -6
20 -4 11 0 16 14 16 12 0 23 -4 27 -9z m485 -11 c0 -5 -2 -10 -4 -10 -3 0 -8
5 -11 10 -3 6 -1 10 4 10 6 0 11 -4 11 -10z m-437 -113 c-9 -16 -24 9 -17 28
7 18 8 18 14 -1 4 -10 5 -23 3 -27z m27 -56 c-1 -25 -1 -25 -15 -7 -19 26 -19
47 0 40 8 -4 15 -18 15 -33z m-28 -66 c3 -14 1 -28 -3 -31 -5 -3 -9 1 -9 10 0
8 -3 21 -6 30 -3 9 -2 16 4 16 5 0 12 -11 14 -25z m609 -14 c0 8 7 1 14 -16
11 -25 11 -34 -2 -58 -21 -41 -38 -28 -41 33 -3 48 -2 53 12 41 13 -11 16 -11
17 0z m-626 -81 c-5 -8 -11 -8 -17 -2 -6 6 -7 16 -3 22 5 8 11 8 17 2 6 -6 7
-16 3 -22z m648 -179 c4 -4 9 -29 12 -55 5 -48 45 -120 45 -80 0 12 3 15 10 8
6 -6 12 -57 14 -115 3 -57 9 -128 15 -157 6 -30 14 -201 17 -382 7 -317 6
-328 -12 -334 -11 -3 -43 -22 -73 -41 -30 -20 -55 -34 -58 -32 -2 2 -6 93 -8
202 -3 108 -9 214 -13 234 -4 20 -5 95 -2 166 4 106 8 130 20 131 45 1 51 13
43 88 -4 39 -6 110 -4 157 l3 86 -36 7 c-20 4 -41 4 -46 1 -6 -4 -9 19 -9 62
1 37 4 56 6 41 6 -38 23 -35 23 3 0 27 3 30 23 24 12 -4 25 -10 30 -14z m1728
-65 c119 -7 221 -16 228 -20 19 -12 37 -56 66 -166 15 -58 38 -141 50 -185 65
-229 87 -447 89 -857 l1 -337 -23 -23 c-21 -22 -32 -23 -170 -26 -185 -5 -187
-3 -203 113 -34 256 -167 477 -379 633 -147 107 -349 171 -547 172 -86 0 -93
4 -93 54 0 48 24 274 45 426 8 58 15 123 15 146 0 47 20 70 65 77 69 10 657 5
856 -7z m-2171 -97 c0 -31 -16 -40 -22 -11 -6 24 3 53 13 46 5 -3 9 -18 9 -35z
m5 -89 c-3 -5 -6 -31 -7 -57 -1 -26 -3 -40 -6 -30 -2 9 -8 17 -13 17 -5 0 -9
9 -9 20 0 11 4 20 9 20 5 0 11 9 14 20 3 11 8 20 12 20 3 0 4 -4 0 -10z m233
-395 c-3 -3 -9 2 -12 12 -6 14 -5 15 5 6 7 -7 10 -15 7 -18z m62 -109 c0 -86
18 -199 33 -208 9 -5 13 -80 15 -289 l3 -281 -27 -36 c-115 -150 -181 -295
-193 -422 l-6 -65 -85 0 c-86 0 -209 11 -217 19 -3 2 -2 14 2 26 6 20 8 20 25
5 17 -15 19 -14 39 11 11 15 21 22 21 16 0 -9 6 -9 24 0 30 13 40 34 20 42 -8
3 -14 11 -14 18 -1 17 -35 58 -49 58 -6 0 -11 10 -11 21 0 17 3 19 14 10 9 -7
17 -8 20 -2 9 14 -5 42 -17 34 -7 -4 -8 0 -3 13 4 10 14 46 22 79 26 107 35
135 43 135 5 0 6 11 4 24 -3 14 0 41 7 61 6 20 16 59 20 88 5 29 16 86 24 127
9 41 16 92 16 114 0 32 2 37 14 26 12 -9 16 -6 20 22 22 135 35 257 35 330 1
58 4 68 21 73 11 3 24 4 28 1 5 -3 12 -50 15 -104 10 -144 15 -162 43 -162 22
0 24 4 26 58 3 90 6 144 12 182 2 19 5 38 5 41 1 3 12 4 26 1 23 -4 25 -8 25
-66z m-1231 -313 c-42 -54 -134 -114 -175 -112 -18 0 -18 1 -1 12 10 7 51 35
90 64 74 54 112 70 86 36z m844 -160 c6 -31 5 -33 -23 -33 -35 0 -37 10 -12
60 18 40 23 36 35 -27z m615 -143 c-23 -19 -58 -50 -77 -67 -20 -18 -39 -33
-44 -33 -5 0 -6 42 -3 93 3 50 5 98 5 105 1 8 19 12 54 12 28 0 63 6 77 13 25
13 25 12 28 -37 3 -48 2 -52 -40 -86z m-611 -32 c-3 -7 -5 -2 -5 12 0 14 2 19
5 13 2 -7 2 -19 0 -25z m-37 2 c-12 -7 -11 -25 6 -108 5 -26 4 -31 -9 -26 -10
3 -17 26 -22 69 -7 70 -3 87 21 78 12 -4 12 -8 4 -13z m-20 -246 c-13 -46 -30
-50 -30 -8 0 14 4 22 10 19 6 -3 10 3 10 14 0 10 3 28 7 38 14 35 16 -15 3
-63z m1406 -13 c103 -27 169 -66 254 -151 133 -133 175 -255 160 -462 -5 -76
-12 -98 -48 -171 -55 -107 -115 -175 -206 -232 -99 -61 -174 -87 -272 -93
-160 -9 -304 48 -424 168 -101 100 -145 187 -162 321 -10 82 -9 107 5 179 9
46 25 93 35 104 10 12 24 41 31 66 10 34 31 63 90 121 149 149 339 202 537
150z m-1452 -95 c-3 -15 -8 -25 -11 -23 -2 3 -1 17 3 31 3 15 8 25 11 23 2 -3
1 -17 -3 -31z m-592 -54 c71 -33 147 -103 149 -136 3 -42 -3 -91 -13 -103 -7
-9 -48 -13 -138 -13 -108 0 -129 3 -142 18 -39 44 -71 209 -48 252 11 21 17
22 71 17 35 -3 84 -17 121 -35z m-1740 -1253 c85 -18 260 -59 293 -69 17 -5
68 -16 115 -25 47 -8 108 -20 135 -26 28 -7 132 -14 233 -17 100 -2 182 -8
182 -12 0 -22 -200 -50 -360 -50 -206 0 -362 30 -564 106 -174 66 -199 83
-141 97 34 8 52 7 107 -4z"/>
<path d="M5730 4524 c0 -8 5 -12 10 -9 6 4 8 11 5 16 -9 14 -15 11 -15 -7z"/>
<path d="M5878 4188 c-2 -7 -1 -29 3 -48 6 -34 6 -33 8 13 1 46 -3 59 -11 35z"/>
<path d="M5767 3953 c-11 -10 -8 -63 3 -63 6 0 10 16 10 35 0 36 -2 40 -13 28z"/>
<path d="M6388 2535 c-42 -28 -78 -96 -78 -146 0 -40 33 -98 73 -129 43 -34
134 -39 185 -10 105 59 111 218 10 285 -53 35 -138 35 -190 0z"/>
<path d="M5168 10079 c-377 -164 -699 -545 -841 -994 -86 -274 -107 -392 -107
-617 0 -173 16 -317 48 -418 l17 -55 5 134 c5 111 9 136 24 146 24 18 42 11
236 -82 176 -85 299 -137 306 -130 8 8 -43 45 -294 213 -95 63 -182 124 -192
134 -45 45 -8 150 52 150 13 0 99 -39 193 -87 93 -48 215 -106 270 -129 98
-42 142 -47 94 -13 -125 92 -273 193 -380 260 -71 45 -136 91 -144 102 -23 33
-19 81 11 116 33 40 54 39 134 -4 192 -103 504 -249 521 -243 15 5 -132 111
-366 264 -195 129 -219 152 -212 206 6 48 41 88 76 88 27 0 160 -65 289 -142
80 -48 82 -50 82 -87 0 -24 7 -44 18 -53 38 -33 142 -90 217 -119 84 -32 178
-79 183 -91 2 -5 9 -8 14 -8 11 0 256 -149 388 -236 133 -88 259 -243 363
-449 108 -214 158 -371 198 -624 14 -88 11 -93 -58 -89 l-57 3 -17 46 c-9 25
-19 64 -23 87 -20 125 -163 481 -248 617 -94 149 -252 315 -300 315 -30 0
-224 -109 -323 -182 -90 -66 -196 -217 -244 -348 -21 -59 -75 -245 -109 -375
-65 -248 -62 -228 -46 -260 8 -17 24 -41 37 -55 42 -48 152 -177 247 -291 114
-136 163 -188 251 -260 169 -138 256 -216 419 -379 97 -96 207 -211 246 -254
38 -44 102 -116 142 -160 40 -45 84 -100 98 -124 14 -24 55 -84 90 -133 36
-49 95 -135 131 -190 39 -60 69 -97 75 -91 5 5 5 62 -1 143 -18 251 -23 415
-12 404 6 -6 42 -104 80 -219 38 -114 74 -213 80 -219 12 -12 10 -14 259 230
l145 142 -7 128 c-20 354 -26 546 -32 968 -6 452 -3 506 24 395 37 -154 51
-243 81 -535 6 -60 15 -153 21 -205 5 -52 15 -161 22 -242 7 -87 16 -149 23
-152 15 -5 272 11 365 23 71 10 99 16 206 43 50 12 64 29 44 54 -16 18 -18 16
90 84 47 30 128 81 180 115 52 34 118 74 145 90 28 16 52 31 55 35 3 3 30 21
60 40 55 34 56 34 162 32 78 -2 117 1 144 13 51 21 70 19 126 -15 26 -16 50
-30 53 -30 2 0 64 -37 137 -82 436 -268 438 -269 489 -248 37 16 47 23 72 60
21 30 22 108 3 136 -12 17 -142 103 -212 140 -21 11 -97 55 -264 152 -128 75
-125 71 -106 117 28 66 14 125 -38 159 -14 9 -61 45 -105 80 -43 36 -103 79
-132 97 -30 18 -75 52 -101 76 -65 60 -87 58 -217 -17 l-103 -60 -71 38 c-62
33 -271 153 -602 347 -361 211 -485 277 -485 261 0 -20 166 -345 183 -358 12
-10 85 -54 162 -99 77 -45 168 -99 202 -121 34 -21 65 -38 68 -38 3 0 45 -24
93 -53 48 -30 124 -75 170 -101 88 -51 122 -85 122 -121 0 -44 -32 -63 -195
-121 -215 -76 -209 -75 -203 -35 3 18 1 34 -3 37 -4 2 -65 -7 -134 -22 -148
-30 -143 -32 -190 71 -18 39 -49 106 -70 150 -34 74 -167 374 -201 455 -9 19
-20 44 -25 55 -5 11 -31 74 -57 140 -57 144 -106 234 -162 297 -49 57 -118
113 -127 104 -4 -4 5 -30 19 -59 91 -181 143 -356 178 -597 18 -120 16 -125
-45 -125 l-50 0 -8 50 c-37 234 -80 411 -131 534 -31 76 -104 196 -140 230
-32 30 -32 49 -2 110 35 68 68 105 115 125 55 25 83 16 156 -55 72 -69 105
-76 147 -31 36 38 54 77 68 147 33 163 65 213 150 226 29 5 57 14 62 21 8 12
4 134 -9 226 -5 41 -4 42 23 42 16 0 73 -11 129 -24 197 -48 321 -69 408 -70
80 0 89 2 113 25 21 21 23 30 15 50 -8 23 -134 118 -226 171 -105 62 -382 189
-550 253 -127 48 -290 105 -303 105 -7 0 -32 9 -54 20 -23 11 -49 20 -57 20
-8 0 -51 11 -95 23 -103 30 -307 77 -456 106 -138 26 -336 23 -482 -8 -91 -19
-146 -76 -127 -129 10 -26 110 -93 224 -150 92 -45 207 -92 228 -92 8 0 26 -9
41 -21 26 -20 26 -23 26 -143 0 -137 -13 -223 -40 -276 -25 -46 -147 -200
-165 -206 -8 -3 -40 10 -72 29 -32 19 -76 45 -98 57 -22 12 -76 44 -120 70
-44 26 -136 80 -205 120 -69 41 -184 115 -256 165 -164 114 -182 122 -235 105
-48 -16 -56 -13 -235 96 -126 77 -164 111 -164 147 0 30 39 87 68 98 35 14 15
22 380 -152 68 -33 125 -59 128 -59 2 0 32 -13 66 -30 60 -29 98 -38 98 -22
-1 10 -153 111 -355 235 -93 57 -182 117 -197 132 -38 38 -38 83 2 125 25 27
35 31 60 26 26 -5 135 -55 350 -161 30 -15 84 -38 120 -51 103 -38 115 -30 37
24 -137 94 -212 144 -297 197 -185 114 -190 130 -67 250 45 44 110 106 145
137 34 32 62 60 62 63 0 12 -39 2 -102 -26z"/>
<path d="M6598 9961 c-20 -17 -56 -75 -90 -142 -77 -155 -118 -245 -118 -257
0 -14 16 -18 140 -37 287 -44 569 -115 855 -215 66 -23 128 -44 138 -47 20 -6
20 -10 8 217 -7 138 -11 161 -34 207 -53 103 -149 158 -347 199 -106 22 -282
62 -371 85 -107 27 -141 25 -181 -10z"/>
<path d="M2625 8620 c-3 -6 4 -28 16 -50 40 -70 81 -42 44 30 -15 30 -48 40
-60 20z"/>
<path d="M4381 8078 c-13 -7 -34 -26 -45 -41 -29 -39 -32 -161 -12 -399 9
-101 16 -205 16 -229 0 -51 -14 -36 250 -280 156 -145 194 -178 198 -174 2 2
-6 41 -17 87 -11 46 -28 121 -37 168 -58 313 -214 815 -268 859 -21 17 -61 21
-85 9z"/>
<path d="M2075 7882 c-213 -117 -353 -298 -447 -575 -29 -84 -31 -104 -32
-228 l-1 -136 50 5 c110 9 214 87 291 218 116 195 166 335 199 558 18 116 21
163 13 173 -14 17 -15 17 -73 -15z"/>
<path d="M3908 7633 c7 -3 16 -2 19 1 4 3 -2 6 -13 5 -11 0 -14 -3 -6 -6z"/>
<path d="M4060 7504 c0 -17 17 -36 24 -26 3 5 -1 15 -9 22 -8 7 -15 9 -15 4z"/>
<path d="M4178 7395 c3 -17 0 -25 -9 -25 -11 0 -11 -2 1 -10 12 -7 12 -12 2
-22 -17 -17 -15 -28 7 -28 10 0 32 -7 47 -15 16 -8 36 -15 45 -15 9 0 22 -7
29 -15 18 -22 26 -18 25 13 0 15 -5 27 -10 27 -6 0 -36 26 -66 58 -61 62 -79
70 -71 32z"/>
<path d="M3721 7264 c0 -11 3 -14 6 -6 3 7 2 16 -1 19 -3 4 -6 -2 -5 -13z"/>
<path d="M4240 7216 c0 -2 7 -9 15 -16 12 -10 15 -10 15 4 0 9 -7 16 -15 16
-8 0 -15 -2 -15 -4z"/>
<path d="M2084 7172 c-149 -109 -210 -181 -292 -342 -95 -189 -125 -330 -107
-514 l7 -77 41 6 c51 8 113 37 147 67 88 79 189 274 240 461 23 89 52 318 48
384 -4 61 -18 64 -84 15z"/>
<path d="M3776 7201 c-3 -5 3 -11 14 -14 13 -3 20 0 20 9 0 15 -26 19 -34 5z"/>
<path d="M4125 7170 c-3 -5 -1 -10 4 -10 6 0 11 5 11 10 0 6 -2 10 -4 10 -3 0
-8 -4 -11 -10z"/>
<path d="M4056 7151 c-3 -5 3 -11 15 -14 16 -4 18 -3 8 9 -13 16 -16 17 -23 5z"/>
<path d="M4046 7073 c-11 -11 -6 -23 8 -23 8 0 17 4 20 9 7 10 -19 23 -28 14z"/>
<path d="M4280 6931 c0 -6 5 -13 10 -16 6 -3 10 1 10 9 0 9 -4 16 -10 16 -5 0
-10 -4 -10 -9z"/>
<path d="M2151 6584 c-119 -120 -177 -216 -236 -390 -20 -59 -43 -135 -50
-168 -22 -91 -19 -237 6 -332 11 -43 22 -80 23 -82 10 -9 132 67 165 103 107
116 198 407 208 665 5 147 -6 271 -25 278 -7 2 -48 -31 -91 -74z"/>
<path d="M3650 6531 c0 -11 31 -24 39 -16 3 3 -1 10 -9 15 -19 12 -30 12 -30
1z"/>
<path d="M3570 6470 c0 -5 5 -10 10 -10 6 0 10 5 10 10 0 6 -4 10 -10 10 -5 0
-10 -4 -10 -10z"/>
<path d="M3965 6330 c-16 -7 -13 -9 17 -9 20 -1 40 4 43 9 7 12 -32 12 -60 0z"/>
<path d="M4166 6221 c-4 -5 3 -15 15 -21 18 -10 20 -9 17 6 -4 20 -23 30 -32
15z"/>
<path d="M3928 6173 c7 -3 16 -2 19 1 4 3 -2 6 -13 5 -11 0 -14 -3 -6 -6z"/>
<path d="M3916 6152 c-2 -4 12 -6 32 -4 56 5 62 10 15 11 -23 1 -44 -3 -47 -7z"/>
<path d="M2384 6118 c-117 -131 -180 -256 -240 -473 -24 -88 -28 -119 -28
-250 -1 -141 1 -155 28 -232 16 -46 33 -83 38 -83 26 0 132 87 163 133 104
158 160 524 121 788 -21 138 -24 149 -40 149 -7 0 -26 -15 -42 -32z"/>
<path d="M3950 6136 c0 -10 28 -13 41 -5 10 6 7 9 -13 9 -16 0 -28 -2 -28 -4z"/>
<path d="M3925 6110 c-3 -5 -2 -10 4 -10 5 0 13 5 16 10 3 6 2 10 -4 10 -5 0
-13 -4 -16 -10z"/>
<path d="M4675 5940 c3 -5 8 -10 11 -10 2 0 4 5 4 10 0 6 -5 10 -11 10 -5 0
-7 -4 -4 -10z"/>
<path d="M2638 5698 c-89 -118 -172 -302 -194 -433 -38 -223 -40 -322 -8 -449
12 -48 64 -167 80 -185 2 -2 28 17 58 43 132 113 194 330 183 646 -6 192 -52
410 -85 410 -5 0 -21 -15 -34 -32z"/>
<path d="M4895 5620 c-3 -5 1 -10 9 -10 9 0 16 5 16 10 0 6 -4 10 -9 10 -6 0
-13 -4 -16 -10z"/>
<path d="M5476 5563 c-11 -11 -6 -23 9 -23 8 0 15 4 15 9 0 13 -16 22 -24 14z"/>
<path d="M4650 5463 c0 -5 11 -20 26 -33 21 -21 27 -22 34 -10 12 19 8 33 -11
36 -7 1 -22 5 -31 9 -10 4 -18 3 -18 -2z"/>
<path d="M4890 5461 c0 -6 5 -13 10 -16 6 -3 10 1 10 9 0 9 -4 16 -10 16 -5 0
-10 -4 -10 -9z"/>
<path d="M4936 5441 c-4 -7 -5 -15 -2 -18 9 -9 19 4 14 18 -4 11 -6 11 -12 0z"/>
<path d="M5077 5293 c-13 -12 -7 -23 13 -23 11 0 20 7 20 15 0 15 -21 21 -33
8z"/>
<path d="M5120 5220 c0 -5 4 -10 9 -10 6 0 13 5 16 10 3 6 -1 10 -9 10 -9 0
-16 -4 -16 -10z"/>
<path d="M5187 5179 c4 -13 9 -17 15 -11 11 11 3 32 -12 32 -4 0 -6 -9 -3 -21z"/>
<path d="M5940 5071 c0 -6 5 -13 10 -16 6 -3 10 1 10 9 0 9 -4 16 -10 16 -5 0
-10 -4 -10 -9z"/>
<path d="M5963 5032 c-11 -7 -10 -21 12 -119 3 -13 10 -23 15 -23 6 0 8 11 3
28 -3 15 -6 48 -6 75 0 48 -3 53 -24 39z"/>
<path d="M1785 4856 c-80 -17 -156 -47 -168 -68 -15 -22 26 -81 123 -178 158
-159 403 -242 535 -181 44 20 105 74 105 93 0 23 -72 144 -108 181 -70 72
-163 119 -302 152 -76 17 -104 17 -185 1z"/>
<path d="M6016 4801 c-3 -5 -3 -23 0 -40 6 -29 8 -30 20 -14 18 24 18 63 0 63
-8 0 -17 -4 -20 -9z"/>
<path d="M6057 4713 c-4 -3 -7 -15 -7 -25 0 -26 24 -17 28 10 3 21 -8 29 -21
15z"/>
<path d="M9345 2961 c-170 -46 -276 -109 -385 -228 -149 -163 -215 -375 -188
-602 20 -178 86 -311 217 -441 70 -70 103 -94 181 -133 129 -64 185 -79 320
-84 172 -7 312 32 454 126 245 162 381 487 321 769 -39 187 -129 336 -275 452
-77 63 -134 92 -252 130 -83 27 -105 30 -213 29 -78 -1 -141 -7 -180 -18z
m324 -333 c49 -17 79 -36 128 -82 107 -100 147 -189 147 -326 -1 -76 -5 -93
-36 -161 -39 -84 -119 -174 -184 -207 -85 -43 -143 -55 -234 -50 -70 4 -99 11
-151 36 -84 40 -168 127 -212 219 -30 63 -32 76 -32 173 0 98 2 110 33 175 23
50 51 87 94 127 129 122 275 153 447 96z"/>
<path d="M9450 2328 c-115 -79 -28 -262 103 -219 107 36 120 186 20 227 -47
20 -85 17 -123 -8z"/>
<path d="M5050 2354 c0 -8 5 -12 10 -9 6 3 10 10 10 16 0 5 -4 9 -10 9 -5 0
-10 -7 -10 -16z"/>
<path d="M5036 2321 c-4 -7 -5 -15 -2 -18 9 -9 19 4 14 18 -4 11 -6 11 -12 0z"/>
<path d="M5010 2269 c0 -5 5 -7 10 -4 6 3 10 8 10 11 0 2 -4 4 -10 4 -5 0 -10
-5 -10 -11z"/>
<path d="M5001 2234 c0 -11 3 -14 6 -6 3 7 2 16 -1 19 -3 4 -6 -2 -5 -13z"/>
<path d="M4965 2159 c-4 -6 -5 -12 -2 -15 2 -3 7 2 10 11 7 17 1 20 -8 4z"/>
<path d="M4945 2120 c-3 -5 -1 -10 4 -10 6 0 11 5 11 10 0 6 -2 10 -4 10 -3 0
-8 -4 -11 -10z"/>
<path d="M4902 2038 c-17 -29 -40 -74 -52 -100 -12 -26 -28 -52 -36 -59 -8 -6
-14 -16 -14 -21 0 -7 -71 -124 -134 -220 -10 -15 -13 -29 -7 -32 7 -5 71 74
71 89 0 2 19 36 43 77 71 119 170 309 164 314 -3 3 -18 -19 -35 -48z"/>
<path d="M5262 1433 c-14 -20 -41 -37 -79 -51 -68 -25 -199 -60 -263 -72 -25
-4 -81 -15 -125 -23 -224 -42 -389 -56 -770 -66 -294 -8 -307 -10 -379 -59
-46 -31 -126 -149 -155 -228 -29 -75 -27 -116 9 -181 35 -64 37 -84 10 -108
-25 -23 -25 -35 -1 -35 26 0 51 37 51 75 0 16 -14 53 -30 80 -41 69 -39 105
12 206 47 94 104 161 163 192 36 19 63 21 308 28 460 13 761 48 1007 119 117
33 161 43 168 35 10 -10 -62 -70 -111 -93 -63 -30 -150 -48 -407 -87 -308 -47
-399 -68 -488 -113 -99 -50 -222 -205 -222 -281 0 -53 75 -130 150 -151 69
-20 176 -22 305 -5 218 27 264 29 324 11 67 -20 71 -20 71 -2 0 8 -22 22 -51
31 -60 20 -179 17 -354 -10 -189 -29 -318 -5 -386 73 -26 29 -30 41 -26 69 14
82 125 204 232 253 69 32 110 43 250 65 55 8 125 20 155 25 30 5 100 17 155
25 160 25 264 53 320 85 59 33 160 135 175 176 16 42 6 51 -18 17z"/>
</g>
</svg>
